<?xml version="1.0" standalone="no"?>
<!DOCTYPE svg PUBLIC "-//W3C//DTD SVG 20010904//EN"
 "http://www.w3.org/TR/2001/REC-SVG-20010904/DTD/svg10.dtd">
<svg version="1.0" xmlns="http://www.w3.org/2000/svg"
 width="500.000000pt" height="500.000000pt" viewBox="0 0 500.000000 500.000000"
 preserveAspectRatio="xMidYMid meet">
<metadata>
Created by potrace 1.11, written by Peter Selinger 2001-2013
</metadata>
<g transform="translate(0.000000,500.000000) scale(0.100000,-0.100000)"
fill="#000000" stroke="none">
<path d="M0 2500 l0 -2500 2500 0 2500 0 0 2500 0 2500 -2500 0 -2500 0 0
-2500z m2479 945 c104 -88 67 -336 -112 -755 -63 -149 -71 -173 -75 -245 -4
-71 -2 -82 16 -98 18 -17 25 -17 57 -7 20 7 66 34 102 62 36 27 67 48 68 46 2
-2 7 -32 13 -68 11 -76 11 -76 -71 -132 -151 -103 -234 -102 -303 1 l-26 41
-41 -35 c-59 -50 -133 -85 -183 -85 -56 0 -83 11 -120 49 l-31 32 -79 -38
c-187 -89 -301 -35 -279 131 5 44 4 48 -12 41 -10 -4 -43 -10 -73 -12 -94 -8
-147 44 -174 168 -7 36 -16 58 -19 49 -4 -8 -36 -98 -72 -199 -36 -101 -72
-193 -82 -203 -36 -40 -108 -12 -119 47 l-6 34 -62 -52 c-33 -29 -84 -67 -113
-85 -28 -18 -54 -40 -57 -48 -3 -8 -12 -71 -21 -142 -24 -194 -54 -280 -122
-344 -63 -61 -164 -75 -243 -36 -146 74 -87 282 150 531 46 49 72 85 76 107
l7 32 -42 -27 c-61 -41 -127 -45 -185 -11 -126 74 -131 218 -14 450 76 151
238 240 312 171 20 -19 38 -25 70 -25 28 0 48 -6 57 -17 18 -22 16 -166 -5
-253 -8 -36 -18 -99 -21 -140 -3 -41 -8 -90 -11 -108 -5 -32 -4 -33 17 -21 36
19 111 101 155 168 40 63 53 73 55 44 0 -10 9 27 18 82 24 132 60 263 78 281
8 7 32 14 53 14 49 0 54 -13 45 -128 l-6 -87 40 73 c45 84 65 108 103 128 66
34 135 1 125 -60 -3 -17 -11 -63 -18 -101 -22 -126 7 -163 103 -129 l53 19 31
115 c25 90 37 119 56 133 33 24 112 34 133 17 18 -15 16 -31 -22 -165 -81
-286 -82 -374 -3 -346 69 24 86 45 99 123 14 87 76 218 130 274 51 53 116 92
166 100 l42 6 6 62 c10 101 65 304 107 391 83 174 198 248 279 180z m-718
-334 c21 -22 29 -39 29 -66 0 -76 -51 -125 -129 -125 -56 0 -87 17 -106 57
-19 40 -13 80 17 118 26 34 51 44 111 44 41 1 53 -4 78 -28z m1675 -290 c50
-23 84 -68 91 -121 7 -54 -35 -143 -76 -160 -56 -23 -91 18 -72 87 32 115 -58
108 -110 -9 -20 -44 -24 -69 -24 -155 0 -93 2 -103 24 -127 60 -63 151 -34
281 90 62 59 83 75 90 64 13 -21 28 -5 161 170 65 87 129 161 144 168 37 17
95 15 117 -5 30 -27 23 -73 -22 -127 -44 -53 -46 -66 -25 -146 8 -30 15 -89
15 -131 l0 -75 68 32 c96 46 156 104 292 284 66 87 130 161 145 168 37 17 95
15 117 -5 30 -27 23 -73 -22 -127 -44 -53 -46 -66 -25 -146 8 -30 15 -89 15
-131 l0 -75 83 39 c45 22 94 48 109 58 43 31 48 25 48 -53 0 -71 -1 -74 -33
-95 -145 -99 -397 -158 -519 -121 -35 10 -90 58 -99 87 -3 8 -32 -1 -81 -24
-141 -65 -315 -92 -410 -63 -43 13 -98 68 -98 98 0 35 -49 25 -115 -25 -77
-57 -139 -79 -215 -73 -163 12 -258 170 -216 358 32 145 93 242 178 284 62 31
126 33 184 7z m-577 -457 c27 -22 31 -32 31 -75 0 -68 -36 -109 -103 -116 -63
-7 -106 11 -124 55 -23 54 -1 121 49 149 13 7 44 12 70 13 36 0 54 -6 77 -26z"/>
<path d="M2372 3303 c-47 -18 -112 -322 -111 -518 0 -75 1 -78 14 -54 25 46
104 288 120 368 17 82 17 203 0 207 -5 1 -16 0 -23 -3z"/>
<path d="M472 2693 c-38 -18 -79 -75 -122 -165 -51 -106 -37 -228 25 -228 28
0 63 45 78 101 16 54 67 287 67 302 0 11 -11 8 -48 -10z"/>
<path d="M2029 2660 c-43 -44 -61 -71 -83 -130 -15 -41 -30 -98 -33 -126 -5
-46 -3 -53 18 -68 34 -24 64 -20 102 14 61 53 70 88 60 236 l-8 129 -56 -55z"/>
<path d="M860 2355 c0 -66 1 -68 16 -47 11 16 13 32 9 55 -14 66 -24 63 -25
-8z"/>
<path d="M422 1956 c-36 -41 -92 -142 -117 -208 -14 -39 -15 -51 -5 -63 36
-44 90 6 124 114 22 72 43 191 33 191 -3 0 -19 -15 -35 -34z"/>
<path d="M3776 2434 c-87 -94 -88 -95 -70 -115 24 -26 67 -49 93 -49 11 0 32
11 47 24 27 22 28 28 29 112 2 137 2 137 -99 28z"/>
<path d="M4366 2434 c-87 -94 -88 -95 -70 -115 24 -26 67 -49 93 -49 11 0 32
11 47 24 27 22 28 28 29 112 2 137 2 137 -99 28z"/>
</g>
</svg>
